<?xml version="1.0" encoding="UTF-8" standalone="no"?>
<!DOCTYPE svg PUBLIC "-//W3C//DTD SVG 1.1//EN"
 "http://www.w3.org/Graphics/SVG/1.1/DTD/svg11.dtd">
<!-- Generated by graphviz version 12.2.1 (20241206.2353)
 -->
<!-- Title: snakemake_dag Pages: 1 -->
<svg width="322pt" height="776pt"
 viewBox="0.00 0.00 322.00 776.25" xmlns="http://www.w3.org/2000/svg" xmlns:xlink="http://www.w3.org/1999/xlink">
<g id="graph0" class="graph" transform="scale(1 1) rotate(0) translate(4 772.25)">
<title>snakemake_dag</title>
<polygon fill="white" stroke="none" points="-4,4 -4,-772.25 318,-772.25 318,4 -4,4"/>
<!-- 0 -->
<g id="node1" class="node">
<title>0</title>
<text text-anchor="start" x="84.62" y="-72.65" font-family="sans" font-weight="bold" font-size="18.00">process_all_data</text>
<text text-anchor="start" x="25" y="-50.7" font-family="sans" font-size="10.00"> </text>
<text text-anchor="start" x="28" y="-50.7" font-family="sans" font-weight="bold" font-size="14.00">↪ input</text>
<text text-anchor="start" x="78.25" y="-50.7" font-family="sans" font-size="10.00"> </text>
<text text-anchor="start" x="25" y="-28.5" font-family="monospace" font-size="10.00">results/bayofbengal/processing/daily.parquet</text>
<text text-anchor="start" x="283" y="-8.75" font-family="sans" font-size="10.00"> &#160;</text>
<polygon fill="#57cad9" stroke="#57cad9" points="19,-67 19,-67 296,-67 296,-67 19,-67"/>
<polygon fill="#57cad9" stroke="#57cad9" points="19,-22.25 19,-22.25 296,-22.25 296,-22.25 19,-22.25"/>
<polygon fill="none" stroke="#57cad9" stroke-width="2" points="19,-1 19,-94.75 295,-94.75 295,-1 19,-1"/>
</g>
<!-- 1 -->
<g id="node2" class="node">
<title>1</title>
<text text-anchor="start" x="95.12" y="-250.65" font-family="sans" font-weight="bold" font-size="18.00">extract_events</text>
<text text-anchor="start" x="10" y="-228.7" font-family="sans" font-size="10.00"> </text>
<text text-anchor="start" x="13" y="-228.7" font-family="sans" font-weight="bold" font-size="14.00">↪ input</text>
<text text-anchor="start" x="63.25" y="-228.7" font-family="sans" font-size="10.00"> </text>
<text text-anchor="start" x="10" y="-206.5" font-family="monospace" font-size="10.00">results/bayofbengal/processing/data_all.nc</text>
<text text-anchor="start" x="238" y="-183.95" font-family="sans" font-size="10.00"> </text>
<text text-anchor="start" x="241" y="-183.95" font-family="sans" font-weight="bold" font-size="14.00">output →</text>
<text text-anchor="start" x="301" y="-183.95" font-family="sans" font-size="10.00"> </text>
<text text-anchor="start" x="10" y="-161.75" font-family="monospace" font-size="10.00">results/bayofbengal/processing/daily.parquet</text>
<text text-anchor="start" x="10" y="-142" font-family="monospace" font-size="10.00">results/bayofbengal/processing/daily_metadata.csv</text>
<polygon fill="#d99157" stroke="#d99157" points="4,-245 4,-245 311,-245 311,-245 4,-245"/>
<polygon fill="#d99157" stroke="#d99157" points="4,-200.25 4,-200.25 311,-200.25 311,-200.25 4,-200.25"/>
<polygon fill="none" stroke="#d99157" stroke-width="2" points="4,-132.75 4,-272.75 310,-272.75 310,-132.75 4,-132.75"/>
</g>
<!-- 1&#45;&gt;0 -->
<g id="edge1" class="edge">
<title>1&#45;&gt;0</title>
<path fill="none" stroke="grey" stroke-width="2" d="M157,-132.02C157,-124.05 157,-115.98 157,-108.17"/>
<polygon fill="grey" stroke="grey" stroke-width="2" points="160.5,-108.34 157,-98.34 153.5,-108.34 160.5,-108.34"/>
</g>
<!-- 2 -->
<g id="node3" class="node">
<title>2</title>
<text text-anchor="start" x="81.62" y="-408.9" font-family="sans" font-weight="bold" font-size="18.00">concatenate_data</text>
<text text-anchor="start" x="13" y="-386.95" font-family="sans" font-size="10.00"> </text>
<text text-anchor="start" x="16" y="-386.95" font-family="sans" font-weight="bold" font-size="14.00">↪ input</text>
<text text-anchor="start" x="66.25" y="-386.95" font-family="sans" font-size="10.00"> </text>
<text text-anchor="start" x="13" y="-364.75" font-family="monospace" font-size="10.00">results/bayofbengal/processing/resampled_2020.nc</text>
<text text-anchor="start" x="235" y="-342.2" font-family="sans" font-size="10.00"> </text>
<text text-anchor="start" x="238" y="-342.2" font-family="sans" font-weight="bold" font-size="14.00">output →</text>
<text text-anchor="start" x="298" y="-342.2" font-family="sans" font-size="10.00"> </text>
<text text-anchor="start" x="13" y="-320" font-family="monospace" font-size="10.00">results/bayofbengal/processing/data_all.nc</text>
<polygon fill="#d95757" stroke="#d95757" points="7,-403.25 7,-403.25 308,-403.25 308,-403.25 7,-403.25"/>
<polygon fill="#d95757" stroke="#d95757" points="7,-358.5 7,-358.5 308,-358.5 308,-358.5 7,-358.5"/>
<polygon fill="none" stroke="#d95757" stroke-width="2" points="7,-310.75 7,-431 307,-431 307,-310.75 7,-310.75"/>
</g>
<!-- 2&#45;&gt;1 -->
<g id="edge2" class="edge">
<title>2&#45;&gt;1</title>
<path fill="none" stroke="grey" stroke-width="2" d="M157,-309.9C157,-302.25 157,-294.31 157,-286.38"/>
<polygon fill="grey" stroke="grey" stroke-width="2" points="160.5,-286.55 157,-276.55 153.5,-286.55 160.5,-286.55"/>
</g>
<!-- 3 -->
<g id="node4" class="node">
<title>3</title>
<text text-anchor="start" x="95.12" y="-567.15" font-family="sans" font-weight="bold" font-size="18.00">resample_year</text>
<text text-anchor="start" x="7" y="-545.2" font-family="sans" font-size="10.00"> </text>
<text text-anchor="start" x="10" y="-545.2" font-family="sans" font-weight="bold" font-size="14.00">↪ input</text>
<text text-anchor="start" x="60.25" y="-545.2" font-family="sans" font-size="10.00"> </text>
<text text-anchor="start" x="7" y="-523" font-family="monospace" font-size="10.00">results/bayofbengal/processing/daily_{year}.nc</text>
<text text-anchor="start" x="241" y="-500.45" font-family="sans" font-size="10.00"> </text>
<text text-anchor="start" x="244" y="-500.45" font-family="sans" font-weight="bold" font-size="14.00">output →</text>
<text text-anchor="start" x="304" y="-500.45" font-family="sans" font-size="10.00"> </text>
<text text-anchor="start" x="7" y="-478.25" font-family="monospace" font-size="10.00">results/bayofbengal/processing/resampled_{year}.nc</text>
<polygon fill="#5791d9" stroke="#5791d9" points="1,-561.5 1,-561.5 314,-561.5 314,-561.5 1,-561.5"/>
<polygon fill="#5791d9" stroke="#5791d9" points="1,-516.75 1,-516.75 314,-516.75 314,-516.75 1,-516.75"/>
<polygon fill="none" stroke="#5791d9" stroke-width="2" points="1,-469 1,-589.25 313,-589.25 313,-469 1,-469"/>
</g>
<!-- 3&#45;&gt;2 -->
<g id="edge3" class="edge">
<title>3&#45;&gt;2</title>
<path fill="none" stroke="grey" stroke-width="2" d="M157,-468.16C157,-460.55 157,-452.7 157,-444.92"/>
<polygon fill="grey" stroke="grey" stroke-width="2" points="160.5,-444.96 157,-434.96 153.5,-444.96 160.5,-444.96"/>
</g>
<!-- 4 -->
<g id="node5" class="node">
<title>4</title>
<text text-anchor="start" x="120.62" y="-745.15" font-family="sans" font-weight="bold" font-size="18.00">get_year</text>
<text text-anchor="start" x="19" y="-723.2" font-family="sans" font-size="10.00"> </text>
<text text-anchor="start" x="22" y="-723.2" font-family="sans" font-weight="bold" font-size="14.00">↪ input</text>
<text text-anchor="start" x="72.25" y="-723.2" font-family="sans" font-size="10.00"> </text>
<text text-anchor="start" x="19" y="-701" font-family="monospace" font-size="10.00">/Users/alison/Documents/DPhil/data/era5</text>
<text text-anchor="start" x="19" y="-681.25" font-family="monospace" font-size="10.00">resources/params/bayofbengal.nc</text>
<text text-anchor="start" x="229" y="-658.7" font-family="sans" font-size="10.00"> </text>
<text text-anchor="start" x="232" y="-658.7" font-family="sans" font-weight="bold" font-size="14.00">output →</text>
<text text-anchor="start" x="292" y="-658.7" font-family="sans" font-size="10.00"> </text>
<text text-anchor="start" x="19" y="-636.5" font-family="monospace" font-size="10.00">results/bayofbengal/processing/daily_{year}.nc</text>
<polygon fill="#74d957" stroke="#74d957" points="13,-739.5 13,-739.5 302,-739.5 302,-739.5 13,-739.5"/>
<polygon fill="#74d957" stroke="#74d957" points="13,-675 13,-675 302,-675 302,-675 13,-675"/>
<polygon fill="none" stroke="#74d957" stroke-width="2" points="13,-627.25 13,-767.25 301,-767.25 301,-627.25 13,-627.25"/>
</g>
<!-- 4&#45;&gt;3 -->
<g id="edge4" class="edge">
<title>4&#45;&gt;3</title>
<path fill="none" stroke="grey" stroke-width="2" d="M157,-626.28C157,-618.55 157,-610.67 157,-602.91"/>
<polygon fill="grey" stroke="grey" stroke-width="2" points="160.5,-603.05 157,-593.05 153.5,-603.05 160.5,-603.05"/>
</g>
</g>
</svg>
